<svg width="1280" height="920" viewBox="0 0 1280 920" fill="none" xmlns="http://www.w3.org/2000/svg" role="img" aria-labelledby="title desc">
  <title id="title">Invoice management illustration</title>
  <desc id="desc">A modern invoice dashboard with a document card, payment status, and analytics panel.</desc>
  <defs>
    <linearGradient id="bg" x1="140" y1="120" x2="1140" y2="860" gradientUnits="userSpaceOnUse">
      <stop stop-color="#F5FFF8"/>
      <stop offset="1" stop-color="#E8F8EF"/>
    </linearGradient>
    <linearGradient id="accent" x1="620" y1="92" x2="1240" y2="860" gradientUnits="userSpaceOnUse">
      <stop stop-color="#34D399" stop-opacity="0.28"/>
      <stop offset="1" stop-color="#16A34A" stop-opacity="0.1"/>
    </linearGradient>
    <filter id="shadowA" x="0" y="0" width="1280" height="920" filterUnits="userSpaceOnUse" color-interpolation-filters="sRGB">
      <feDropShadow dx="0" dy="26" stdDeviation="28" flood-color="#0F2818" flood-opacity="0.12"/>
    </filter>
    <filter id="shadowB" x="0" y="0" width="1280" height="920" filterUnits="userSpaceOnUse" color-interpolation-filters="sRGB">
      <feDropShadow dx="0" dy="18" stdDeviation="20" flood-color="#10321E" flood-opacity="0.14"/>
    </filter>
  </defs>

  <rect x="28" y="28" width="1224" height="864" rx="44" fill="url(#bg)"/>
  <rect x="620" y="70" width="580" height="780" rx="40" fill="url(#accent)"/>

  <g filter="url(#shadowA)">
    <rect x="106" y="96" width="730" height="734" rx="34" fill="#FFFFFF" stroke="#D8EDE0" stroke-width="3"/>
  </g>

  <rect x="106" y="96" width="730" height="92" rx="34" fill="#F2FAF5"/>
  <circle cx="156" cy="142" r="10" fill="#22C55E"/>
  <circle cx="190" cy="142" r="10" fill="#F59E0B"/>
  <circle cx="224" cy="142" r="10" fill="#EF4444"/>
  <rect x="618" y="120" width="190" height="44" rx="22" fill="#DDF8E7"/>
  <text x="713" y="148" text-anchor="middle" fill="#16803B" font-family="Sora, Arial, sans-serif" font-size="20" font-weight="700">Open editor</text>

  <text x="158" y="260" fill="#6A7B71" font-family="Sora, Arial, sans-serif" font-size="20" font-weight="700">Invoice Number</text>
  <text x="158" y="306" fill="#13281C" font-family="Sora, Arial, sans-serif" font-size="46" font-weight="800">INV-2026-112</text>

  <text x="158" y="386" fill="#6A7B71" font-family="Sora, Arial, sans-serif" font-size="20" font-weight="700">Billed To</text>
  <text x="158" y="430" fill="#13281C" font-family="Sora, Arial, sans-serif" font-size="34" font-weight="700">Northline Creative</text>
  <text x="158" y="468" fill="#5B6E62" font-family="Sora, Arial, sans-serif" font-size="24" font-weight="500">Monthly product design retainer</text>

  <rect x="158" y="528" width="626" height="80" rx="18" fill="#F5FBF7" stroke="#D8EDE0"/>
  <text x="192" y="577" fill="#2A4034" font-family="Sora, Arial, sans-serif" font-size="24" font-weight="600">Product design support</text>
  <text x="716" y="577" text-anchor="end" fill="#2A4034" font-family="Sora, Arial, sans-serif" font-size="24" font-weight="700">$1,320.00</text>

  <rect x="158" y="624" width="626" height="80" rx="18" fill="#F5FBF7" stroke="#D8EDE0"/>
  <text x="192" y="673" fill="#2A4034" font-family="Sora, Arial, sans-serif" font-size="24" font-weight="600">Frontend handoff and QA</text>
  <text x="716" y="673" text-anchor="end" fill="#2A4034" font-family="Sora, Arial, sans-serif" font-size="24" font-weight="700">$1,320.00</text>

  <g filter="url(#shadowB)">
    <rect x="844" y="188" width="332" height="340" rx="30" fill="#FFFFFF" stroke="#D8EDE0" stroke-width="3"/>
  </g>

  <rect x="878" y="230" width="214" height="54" rx="27" fill="#DDF8E7"/>
  <text x="985" y="263" text-anchor="middle" fill="#16803B" font-family="Sora, Arial, sans-serif" font-size="24" font-weight="700">Paid in 3 days</text>

  <text x="878" y="338" fill="#6A7B71" font-family="Sora, Arial, sans-serif" font-size="20" font-weight="700">Total Due</text>
  <text x="878" y="394" fill="#13281C" font-family="Sora, Arial, sans-serif" font-size="52" font-weight="800">$2,640.00</text>

  <rect x="878" y="438" width="258" height="54" rx="16" fill="#F2FAF5" stroke="#D8EDE0"/>
  <text x="908" y="472" fill="#2A4034" font-family="Sora, Arial, sans-serif" font-size="22" font-weight="700">Due date</text>
  <text x="1108" y="472" text-anchor="end" fill="#2A4034" font-family="Sora, Arial, sans-serif" font-size="22" font-weight="700">Apr 22, 2026</text>

  <g filter="url(#shadowB)">
    <rect x="874" y="552" width="302" height="234" rx="28" fill="#FFFFFF" stroke="#D8EDE0" stroke-width="3"/>
  </g>

  <text x="908" y="604" fill="#6A7B71" font-family="Sora, Arial, sans-serif" font-size="20" font-weight="700">Monthly revenue</text>
  <polyline points="908,726 954,686 1002,700 1050,638 1098,664 1142,618" fill="none" stroke="#22C55E" stroke-width="10" stroke-linecap="round" stroke-linejoin="round"/>
  <circle cx="1142" cy="618" r="10" fill="#22C55E"/>

  <rect x="908" y="748" width="94" height="16" rx="8" fill="#34D399" fill-opacity="0.35"/>
  <rect x="1012" y="748" width="74" height="16" rx="8" fill="#34D399" fill-opacity="0.2"/>
  <rect x="1094" y="748" width="48" height="16" rx="8" fill="#34D399" fill-opacity="0.12"/>
</svg>
